<?xml version="1.0" encoding="UTF-8" standalone="no"?>
<!-- Created with Inkscape (http://www.inkscape.org/) -->

<svg
   xmlns:dc="http://purl.org/dc/elements/1.1/"
   xmlns:cc="http://creativecommons.org/ns#"
   xmlns:rdf="http://www.w3.org/1999/02/22-rdf-syntax-ns#"
   xmlns:svg="http://www.w3.org/2000/svg"
   xmlns="http://www.w3.org/2000/svg"
   xmlns:sodipodi="http://sodipodi.sourceforge.net/DTD/sodipodi-0.dtd"
   xmlns:inkscape="http://www.inkscape.org/namespaces/inkscape"
   width="924.99805"
   height="924.99805"
   viewBox="0 0 867.18566 867.18565"
   id="svg2"
   version="1.1"
   inkscape:version="0.92.3 (2405546, 2018-03-11)"
   sodipodi:docname="10-thumb-doc.svg"
   inkscape:export-filename="~/thumb-doc.png"
   inkscape:export-xdpi="5.1891999"
   inkscape:export-ydpi="5.1891999">
  <defs
     id="defs4" />
  <sodipodi:namedview
     id="base"
     pagecolor="#ffffff"
     bordercolor="#666666"
     borderopacity="1.0"
     inkscape:pageopacity="0.0"
     inkscape:pageshadow="2"
     inkscape:zoom="0.69999999"
     inkscape:cx="342.26607"
     inkscape:cy="465.95584"
     inkscape:document-units="px"
     inkscape:current-layer="layer1"
     showgrid="false"
     inkscape:window-width="1920"
     inkscape:window-height="1027"
     inkscape:window-x="0"
     inkscape:window-y="27"
     inkscape:window-maximized="1"
     inkscape:snap-bbox="true"
     inkscape:bbox-paths="true"
     inkscape:bbox-nodes="true"
     inkscape:snap-bbox-edge-midpoints="true"
     inkscape:snap-bbox-midpoints="true"
     inkscape:object-paths="true"
     inkscape:snap-intersection-paths="true"
     fit-margin-top="0"
     fit-margin-left="0"
     fit-margin-right="0"
     fit-margin-bottom="0"
     units="px"
     inkscape:snap-global="true"
     showguides="true"
     inkscape:guide-bbox="true" />
  <metadata
     id="metadata7">
    <rdf:RDF>
      <cc:Work
         rdf:about="">
        <dc:format>image/svg+xml</dc:format>
        <dc:type
           rdf:resource="http://purl.org/dc/dcmitype/StillImage" />
        <dc:title></dc:title>
      </cc:Work>
    </rdf:RDF>
  </metadata>
  <g
     inkscape:label="Layer 1"
     inkscape:groupmode="layer"
     id="layer1"
     transform="translate(-189.17596,-170.10777)">
    <path
       style="color:#000000;font-style:normal;font-variant:normal;font-weight:normal;font-stretch:normal;font-size:medium;line-height:normal;font-family:sans-serif;font-variant-ligatures:normal;font-variant-position:normal;font-variant-caps:normal;font-variant-numeric:normal;font-variant-alternates:normal;font-feature-settings:normal;text-indent:0;text-align:start;text-decoration:none;text-decoration-line:none;text-decoration-style:solid;text-decoration-color:#000000;letter-spacing:normal;word-spacing:normal;text-transform:none;writing-mode:lr-tb;direction:ltr;text-orientation:mixed;dominant-baseline:auto;baseline-shift:baseline;text-anchor:start;white-space:normal;shape-padding:0;clip-rule:nonzero;display:inline;overflow:visible;visibility:visible;opacity:1;isolation:auto;mix-blend-mode:normal;color-interpolation:sRGB;color-interpolation-filters:linearRGB;solid-color:#000000;solid-opacity:1;vector-effect:none;fill:#333333;fill-opacity:1;fill-rule:nonzero;stroke:none;stroke-width:23.4375;stroke-linecap:round;stroke-linejoin:round;stroke-miterlimit:4;stroke-dasharray:none;stroke-dashoffset:0;stroke-opacity:1;color-rendering:auto;image-rendering:auto;shape-rendering:auto;text-rendering:auto;enable-background:accumulate"
       d="m 551.43091,170.10777 a 11.719922,11.719922 0 0 0 -0.27099,0.005 11.719922,11.719922 0 0 0 -0.18494,0.004 c -0.0394,0.002 -0.0996,0.005 -0.14649,0.007 a 11.719922,11.719922 0 0 0 -0.40649,0.0128 c -0.14674,0.009 -0.37654,0.024 -0.69214,0.0549 l 0.52917,-0.0403 c -0.4305,0.0226 -0.82007,0.0564 -1.16088,0.0934 a 11.719922,11.719922 0 0 0 -0.22156,0.0275 c -0.21587,0.0276 -0.47696,0.0662 -0.7544,0.1117 -0.37228,0.0582 -0.73236,0.12191 -1.06018,0.19043 a 11.719922,11.719922 0 0 0 -0.26917,0.0604 c -0.25331,0.0592 -0.50374,0.12555 -0.75438,0.1941 -0.30141,0.0788 -0.61525,0.16604 -0.95033,0.27099 a 11.719922,11.719922 0 0 0 -0.27282,0.0879 c -0.26367,0.0897 -0.53936,0.19411 -0.81848,0.30213 -0.3139,0.11817 -0.6126,0.23548 -0.87525,0.3479 a 11.719922,11.719922 0 0 0 -0.22338,0.0989 c -0.25404,0.11505 -0.50609,0.23868 -0.75989,0.36621 -0.32415,0.15977 -0.64228,0.32381 -0.94483,0.49256 a 11.719922,11.719922 0 0 0 -0.20142,0.11535 c -0.20194,0.11796 -0.44415,0.26666 -0.69579,0.42664 -0.26901,0.16758 -0.5287,0.33548 -0.76356,0.49622 a 11.719922,11.719922 0 0 0 -0.23987,0.16845 c -0.32303,0.23318 -0.58973,0.44324 -0.83129,0.63721 -0.179,0.13957 -0.37082,0.28829 -0.60791,0.48889 a 11.719922,11.719922 0 0 0 -0.0421,0.0366 c -0.35952,0.30716 -0.72209,0.63624 -1.08765,0.9961 a 11.719922,11.719922 0 0 0 -0.0659,0.0659 L 308.46277,404.42417 c -0.98619,0.98615 -1.86787,2.06533 -2.63672,3.22449 a 11.719922,11.719922 0 0 0 -0.002,0.004 11.719922,11.719922 0 0 0 -1.43737,3.05786 c -1.20587,2.67918 -2.04241,5.5122 -2.04346,8.47962 a 11.719922,11.719922 0 0 0 0,0.004 v 597.21136 c 0.001,11.3982 9.49044,20.8874 20.88867,20.8886 a 11.719922,11.719922 0 0 0 0.002,0 h 599.06982 a 11.719922,11.719922 0 0 0 0.002,0 c 11.39823,0 20.88754,-9.4904 20.88867,-20.8886 V 190.99827 a 11.719922,11.719922 0 0 0 0,-0.002 c -10e-4,-11.39824 -9.49046,-20.88752 -20.88867,-20.88867 a 11.719922,11.719922 0 0 0 -0.002,0 z m 20.88867,41.77917 H 901.4132 V 995.51608 H 344.1244 V 440.08396 h 207.30651 a 11.719922,11.719922 0 0 0 0.002,0 c 11.39822,-10e-4 20.88571,-9.49327 20.88684,-20.88867 a 11.719922,11.719922 0 0 0 0,-0.002 z m -41.77917,29.54224 V 398.30479 H 373.66664 Z m 118.656,63.5321 0.16663,0.002 c -11.50799,-0.16285 -21.18713,9.38061 -21.18713,20.88867 0,11.5081 9.67916,21.05151 21.18713,20.88867 l -0.16663,0.002 h 175.33813 l -0.16663,-0.002 c 11.508,0.16287 21.18714,-9.38057 21.18714,-20.88867 0,-11.50806 -9.67917,-21.0515 -21.18714,-20.88867 l 0.16663,-0.002 z m -228.19336,222.14721 0.16663,0.002 c -11.50799,-0.16285 -21.18713,9.38061 -21.18713,20.88867 0,11.5081 9.68196,21.04964 21.18713,20.88685 l -0.16663,0.002 h 403.53149 l -0.16663,-0.002 c 11.50521,0.16283 21.18714,-9.37875 21.18714,-20.88685 0,-11.50806 -9.67919,-21.05148 -21.18714,-20.88867 l 0.16663,-0.002 z m 0,165.89722 0.16663,0.002 c -11.50517,-0.16281 -21.18713,9.37876 -21.18713,20.88684 0,11.50808 9.67915,21.05149 21.18713,20.88867 l -0.16663,0.002 h 403.53149 l -0.16663,-0.002 c 11.508,0.16285 21.18714,-9.38059 21.18714,-20.88867 0,-11.50808 -9.68199,-21.04962 -21.18714,-20.88684 l 0.16663,-0.002 z m 0,165.89538 0.16663,0.002 c -11.50799,-0.16286 -21.18713,9.38059 -21.18713,20.88867 0,11.50807 9.67917,21.05151 21.18713,20.88867 l -0.16663,0.002 h 403.53149 l -0.16663,-0.002 c 11.50798,0.16285 21.18714,-9.3806 21.18714,-20.88867 0,-11.50808 -9.67917,-21.05152 -21.18714,-20.88867 l 0.16663,-0.002 z"
       id="path815"
       inkscape:connector-curvature="0" />
  </g>
</svg>
