<?xml version="1.0" encoding="UTF-8" standalone="no"?>
<!-- Created with Inkscape (http://www.inkscape.org/) -->

<svg
   xmlns:dc="http://purl.org/dc/elements/1.1/"
   xmlns:cc="http://creativecommons.org/ns#"
   xmlns:rdf="http://www.w3.org/1999/02/22-rdf-syntax-ns#"
   xmlns:svg="http://www.w3.org/2000/svg"
   xmlns="http://www.w3.org/2000/svg"
   xmlns:sodipodi="http://sodipodi.sourceforge.net/DTD/sodipodi-0.dtd"
   xmlns:inkscape="http://www.inkscape.org/namespaces/inkscape"
   width="900"
   height="900"
   viewBox="0 0 843.74999 843.74998"
   id="svg2"
   version="1.1"
   inkscape:version="0.92.3 (2405546, 2018-03-11)"
   sodipodi:docname="10-thumb-aud.svg"
   inkscape:export-filename="/home/jc/Dropbox/DocTools/Dev/inkVerb-repos/501/core/10-thumb-aud.png"
   inkscape:export-xdpi="5.3333335"
   inkscape:export-ydpi="5.3333335">
  <defs
     id="defs4" />
  <sodipodi:namedview
     id="base"
     pagecolor="#ffffff"
     bordercolor="#666666"
     borderopacity="1.0"
     inkscape:pageopacity="0.0"
     inkscape:pageshadow="2"
     inkscape:zoom="0.49497475"
     inkscape:cx="-80.087034"
     inkscape:cy="122.26351"
     inkscape:document-units="px"
     inkscape:current-layer="layer1"
     showgrid="false"
     inkscape:window-width="1920"
     inkscape:window-height="1027"
     inkscape:window-x="0"
     inkscape:window-y="27"
     inkscape:window-maximized="1"
     inkscape:snap-bbox="true"
     inkscape:bbox-paths="true"
     inkscape:bbox-nodes="true"
     inkscape:snap-bbox-edge-midpoints="true"
     inkscape:snap-bbox-midpoints="true"
     inkscape:object-paths="true"
     inkscape:snap-intersection-paths="true"
     fit-margin-top="0"
     fit-margin-left="0"
     fit-margin-right="0"
     fit-margin-bottom="0"
     units="px"
     inkscape:snap-global="true" />
  <metadata
     id="metadata7">
    <rdf:RDF>
      <cc:Work
         rdf:about="">
        <dc:format>image/svg+xml</dc:format>
        <dc:type
           rdf:resource="http://purl.org/dc/dcmitype/StillImage" />
        <dc:title />
      </cc:Work>
    </rdf:RDF>
  </metadata>
  <g
     inkscape:label="Layer 1"
     inkscape:groupmode="layer"
     id="layer1"
     transform="translate(-202.23216,-181.82652)">
    <path
       style="fill:#333333;fill-opacity:1;stroke:none;stroke-width:28.10386848;stroke-linecap:round;stroke-linejoin:round;stroke-miterlimit:4;stroke-dasharray:none;stroke-opacity:1"
       d="m 859.74088,202.17848 -60.66624,61.78887 A 435.46093,435.46093 0 0 1 959.44656,601.16417 435.46093,435.46093 0 0 1 793.17481,943.34364 l 60.75833,61.88096 A 521.99482,521.99482 0 0 0 1045.9822,601.16417 521.99482,521.99482 0 0 0 859.74088,202.17848 Z m -268.61927,103.4949 a 14.053339,14.053339 0 0 0 -6.61166,1.87336 l -245.93717,141.99253 -0.41433,0.24083 H 216.28414 a 14.053339,14.053339 0 0 0 -14.05194,14.05192 v 279.74256 a 14.053339,14.053339 0 0 0 14.05194,14.05192 h 121.87431 l 0.41433,0.23728 245.93717,141.99253 a 14.053339,14.053339 0 0 0 21.0779,-12.16797 V 740.59988 A 161.90214,161.90214 0 0 0 685.88714,601.16417 161.90214,161.90214 0 0 0 605.58785,461.57265 V 319.71823 a 14.053339,14.053339 0 0 0 -14.46624,-14.04485 z m 145.12656,22.28196 -65.14955,66.35714 a 254.01888,254.01888 0 0 1 106.9052,206.85169 254.01888,254.01888 0 0 1 -113.33621,211.2925 l 65.22393,66.43153 A 346.13561,346.13561 0 0 0 870.12048,601.16417 346.13561,346.13561 0 0 0 736.24817,327.95534 Z"
       id="rect814"
       inkscape:connector-curvature="0" />
  </g>
</svg>
