<?xml version="1.0" encoding="UTF-8" standalone="no"?>
<!-- Created with Inkscape (http://www.inkscape.org/) -->

<svg
   xmlns:dc="http://purl.org/dc/elements/1.1/"
   xmlns:cc="http://creativecommons.org/ns#"
   xmlns:rdf="http://www.w3.org/1999/02/22-rdf-syntax-ns#"
   xmlns:svg="http://www.w3.org/2000/svg"
   xmlns="http://www.w3.org/2000/svg"
   xmlns:sodipodi="http://sodipodi.sourceforge.net/DTD/sodipodi-0.dtd"
   xmlns:inkscape="http://www.inkscape.org/namespaces/inkscape"
   width="900"
   height="900"
   viewBox="0 0 843.74999 843.74998"
   id="svg2"
   version="1.1"
   inkscape:version="0.92.3 (2405546, 2018-03-11)"
   sodipodi:docname="10-thumb-doc.svg"
   inkscape:export-filename="/home/jc/Dropbox/DocTools/Dev/inkVerb-repos/501/core/10-thumb-doc.png"
   inkscape:export-xdpi="5.3333335"
   inkscape:export-ydpi="5.3333335">
  <defs
     id="defs4" />
  <sodipodi:namedview
     id="base"
     pagecolor="#ffffff"
     bordercolor="#666666"
     borderopacity="1.0"
     inkscape:pageopacity="0.0"
     inkscape:pageshadow="2"
     inkscape:zoom="0.49497474"
     inkscape:cx="125.73656"
     inkscape:cy="568.17816"
     inkscape:document-units="px"
     inkscape:current-layer="layer1"
     showgrid="false"
     inkscape:window-width="1920"
     inkscape:window-height="1027"
     inkscape:window-x="0"
     inkscape:window-y="27"
     inkscape:window-maximized="1"
     inkscape:snap-bbox="true"
     inkscape:bbox-paths="true"
     inkscape:bbox-nodes="true"
     inkscape:snap-bbox-edge-midpoints="true"
     inkscape:snap-bbox-midpoints="true"
     inkscape:object-paths="true"
     inkscape:snap-intersection-paths="true"
     fit-margin-top="0"
     fit-margin-left="0"
     fit-margin-right="0"
     fit-margin-bottom="0"
     units="px"
     inkscape:snap-global="true"
     showguides="false"
     inkscape:guide-bbox="true">
    <sodipodi:guide
       position="215.62446,448.41302"
       orientation="1,0"
       id="guide836"
       inkscape:locked="false" />
  </sodipodi:namedview>
  <metadata
     id="metadata7">
    <rdf:RDF>
      <cc:Work
         rdf:about="">
        <dc:format>image/svg+xml</dc:format>
        <dc:type
           rdf:resource="http://purl.org/dc/dcmitype/StillImage" />
        <dc:title />
      </cc:Work>
    </rdf:RDF>
  </metadata>
  <g
     inkscape:label="Layer 1"
     inkscape:groupmode="layer"
     id="layer1"
     transform="translate(-202.23216,-181.82652)">
    <path
       style="color:#000000;font-style:normal;font-variant:normal;font-weight:normal;font-stretch:normal;font-size:medium;line-height:normal;font-family:sans-serif;font-variant-ligatures:normal;font-variant-position:normal;font-variant-caps:normal;font-variant-numeric:normal;font-variant-alternates:normal;font-feature-settings:normal;text-indent:0;text-align:start;text-decoration:none;text-decoration-line:none;text-decoration-style:solid;text-decoration-color:#000000;letter-spacing:normal;word-spacing:normal;text-transform:none;writing-mode:lr-tb;direction:ltr;text-orientation:mixed;dominant-baseline:auto;baseline-shift:baseline;text-anchor:start;white-space:normal;shape-padding:0;clip-rule:nonzero;display:inline;overflow:visible;visibility:visible;opacity:1;isolation:auto;mix-blend-mode:normal;color-interpolation:sRGB;color-interpolation-filters:linearRGB;solid-color:#000000;solid-opacity:1;vector-effect:none;fill:#333333;fill-opacity:1;fill-rule:nonzero;stroke:none;stroke-width:18.34239197;stroke-linecap:round;stroke-linejoin:round;stroke-miterlimit:4;stroke-dasharray:none;stroke-dashoffset:0;stroke-opacity:1;color-rendering:auto;image-rendering:auto;shape-rendering:auto;text-rendering:auto;enable-background:accumulate"
       d="m 590.26867,181.8265 c -0.0514,0.002 -0.10272,0.004 -0.15405,0.007 -0.0388,-9.1e-4 -0.0776,-0.002 -0.11644,-0.002 -0.0951,0.006 -0.18999,0.014 -0.2848,0.0233 -0.17112,0.009 -0.34196,0.0227 -0.51231,0.0412 -0.12816,0.0164 -0.25596,0.0355 -0.38332,0.0573 -0.17401,0.026 -0.34724,0.0571 -0.51946,0.0931 -0.13512,0.0316 -0.2695,0.0662 -0.40304,0.1039 -0.15638,0.0401 -0.31167,0.0843 -0.46572,0.13255 -0.14398,0.049 -0.28673,0.10155 -0.4281,0.15763 -0.14533,0.0537 -0.28928,0.111 -0.4317,0.17196 -0.12674,0.0574 -0.25216,0.11776 -0.37616,0.18091 -0.15323,0.0746 -0.30435,0.15344 -0.45318,0.23645 -0.12293,0.0718 -0.24417,0.14645 -0.36363,0.2239 -0.13105,0.0803 -0.26006,0.16396 -0.38691,0.25078 -0.13716,0.099 -0.27155,0.2017 -0.40303,0.30809 -0.11066,0.0853 -0.21936,0.17308 -0.32601,0.26332 -0.16391,0.14004 -0.32283,0.28582 -0.47647,0.43706 l -228.1962,228.1962 c -0.43259,0.43246 -0.82083,0.90712 -1.15893,1.41687 v 0.002 c -0.99586,1.5018 -1.52729,3.26368 -1.52793,5.06566 v 597.21142 c 5e-4,5.0649 4.10629,9.1707 9.17119,9.1712 h 524.06936 c 5.0649,-5e-4 9.17069,-4.1063 9.17119,-9.1712 V 190.9977 c -5e-4,-5.0649 -4.10629,-9.17069 -9.17119,-9.1712 z m 9.17119,18.34239 H 876.97063 V 1007.2341 H 371.24367 V 428.36508 h 219.025 c 5.0649,-5.1e-4 9.17068,-4.10629 9.17119,-9.17119 z m -18.34239,12.96865 V 410.02269 H 384.2141 Z m 69.43778,178.54276 c -5.11586,-0.0724 -9.30187,4.05482 -9.30187,9.1712 0,5.11637 4.18601,9.24358 9.30187,9.17119 h 175.33821 c 5.11586,0.0724 9.30187,-4.05482 9.30187,-9.17119 0,-5.11638 -4.18601,-9.24359 -9.30187,-9.1712 z M 422.34084,538.82704 c -5.11586,-0.0724 -9.30187,4.05482 -9.30187,9.1712 0,5.11637 4.18601,9.24358 9.30187,9.17119 h 403.53262 c 5.11586,0.0724 9.30187,-4.05482 9.30187,-9.17119 0,-5.11638 -4.18601,-9.24359 -9.30187,-9.1712 z m 0,147.14675 c -5.11586,-0.0724 -9.30187,4.05482 -9.30187,9.1712 0,5.11637 4.18601,9.24358 9.30187,9.17119 h 403.53262 c 5.11586,0.0724 9.30187,-4.05482 9.30187,-9.17119 0,-5.11638 -4.18601,-9.24359 -9.30187,-9.1712 z m 0,147.14674 c -5.11586,-0.0724 -9.30187,4.05482 -9.30187,9.1712 0,5.11637 4.18601,9.24358 9.30187,9.17119 h 403.53262 c 5.11586,0.0724 9.30187,-4.05482 9.30187,-9.17119 0,-5.11638 -4.18601,-9.24359 -9.30187,-9.1712 z"
       id="rect814"
       inkscape:connector-curvature="0"
       sodipodi:nodetypes="ccccccccccccccccccccccccccccccccccccccccccsccscccsccscccsccscccsccscc" />
  </g>
</svg>
