<?xml version="1.0" encoding="UTF-8" standalone="no"?>
<!-- Created with Inkscape (http://www.inkscape.org/) -->

<svg
   xmlns:dc="http://purl.org/dc/elements/1.1/"
   xmlns:cc="http://creativecommons.org/ns#"
   xmlns:rdf="http://www.w3.org/1999/02/22-rdf-syntax-ns#"
   xmlns:svg="http://www.w3.org/2000/svg"
   xmlns="http://www.w3.org/2000/svg"
   xmlns:sodipodi="http://sodipodi.sourceforge.net/DTD/sodipodi-0.dtd"
   xmlns:inkscape="http://www.inkscape.org/namespaces/inkscape"
   width="900"
   height="900"
   viewBox="0 0 843.74999 843.74998"
   id="svg2"
   version="1.1"
   inkscape:version="0.92.3 (2405546, 2018-03-11)"
   sodipodi:docname="10-thumb-vid.svg"
   inkscape:export-filename="/home/jc/Dropbox/DocTools/Dev/inkVerb-repos/501/core/10-thumb-vid.png"
   inkscape:export-xdpi="5.3333335"
   inkscape:export-ydpi="5.3333335">
  <defs
     id="defs4" />
  <sodipodi:namedview
     id="base"
     pagecolor="#ffffff"
     bordercolor="#666666"
     borderopacity="1.0"
     inkscape:pageopacity="0.0"
     inkscape:pageshadow="2"
     inkscape:zoom="0.24748737"
     inkscape:cx="-223.1321"
     inkscape:cy="612.18556"
     inkscape:document-units="px"
     inkscape:current-layer="layer1"
     showgrid="false"
     inkscape:window-width="1920"
     inkscape:window-height="1027"
     inkscape:window-x="0"
     inkscape:window-y="27"
     inkscape:window-maximized="1"
     inkscape:snap-bbox="true"
     inkscape:bbox-paths="true"
     inkscape:bbox-nodes="true"
     inkscape:snap-bbox-edge-midpoints="true"
     inkscape:snap-bbox-midpoints="true"
     inkscape:object-paths="true"
     inkscape:snap-intersection-paths="true"
     fit-margin-top="0"
     fit-margin-left="0"
     fit-margin-right="0"
     fit-margin-bottom="0"
     units="px" />
  <metadata
     id="metadata7">
    <rdf:RDF>
      <cc:Work
         rdf:about="">
        <dc:format>image/svg+xml</dc:format>
        <dc:type
           rdf:resource="http://purl.org/dc/dcmitype/StillImage" />
        <dc:title />
      </cc:Work>
    </rdf:RDF>
  </metadata>
  <g
     inkscape:label="Layer 1"
     inkscape:groupmode="layer"
     id="layer1"
     transform="translate(-202.23216,-181.82652)">
    <path
       style="fill:#333333;fill-opacity:1;stroke:none;stroke-width:20;stroke-linecap:round;stroke-linejoin:round;stroke-miterlimit:4;stroke-dasharray:none;stroke-opacity:1"
       d="M 0 0 L 0 900 L 177.78711 900 L 177.78711 0 L 0 0 z M 722.21289 0 L 722.21289 900 L 900 900 L 900 0 L 722.21289 0 z M 26.263672 34.826172 L 151.52344 34.826172 L 151.52344 101.49609 L 26.263672 101.49609 L 26.263672 34.826172 z M 748.47656 34.826172 L 873.73633 34.826172 L 873.73633 101.49609 L 748.47656 101.49609 L 748.47656 34.826172 z M 26.263672 143.92383 L 151.52344 143.92383 L 151.52344 210.59375 L 26.263672 210.59375 L 26.263672 143.92383 z M 748.47656 143.92383 L 873.73633 143.92383 L 873.73633 210.59375 L 748.47656 210.59375 L 748.47656 143.92383 z M 26.263672 253.01953 L 151.52344 253.01953 L 151.52344 319.68945 L 26.263672 319.68945 L 26.263672 253.01953 z M 748.47656 253.01953 L 873.73633 253.01953 L 873.73633 319.68945 L 748.47656 319.68945 L 748.47656 253.01953 z M 450 284.28516 A 165.71429 165.71429 0 0 0 284.28516 450 A 165.71429 165.71429 0 0 0 450 615.71484 A 165.71429 165.71429 0 0 0 615.71484 450 A 165.71429 165.71429 0 0 0 450 284.28516 z M 388.45117 358.85742 L 467.38086 404.42969 L 546.3125 450 L 467.38086 495.57031 L 388.45117 541.14258 L 388.45117 450 L 388.45117 358.85742 z M 26.263672 362.11719 L 151.52344 362.11719 L 151.52344 428.78711 L 26.263672 428.78711 L 26.263672 362.11719 z M 748.47656 362.11719 L 873.73633 362.11719 L 873.73633 428.78711 L 748.47656 428.78711 L 748.47656 362.11719 z M 26.263672 471.21289 L 151.52344 471.21289 L 151.52344 537.88281 L 26.263672 537.88281 L 26.263672 471.21289 z M 748.47656 471.21289 L 873.73633 471.21289 L 873.73633 537.88281 L 748.47656 537.88281 L 748.47656 471.21289 z M 26.263672 580.31055 L 151.52344 580.31055 L 151.52344 646.98047 L 26.263672 646.98047 L 26.263672 580.31055 z M 748.47656 580.31055 L 873.73633 580.31055 L 873.73633 646.98047 L 748.47656 646.98047 L 748.47656 580.31055 z M 26.263672 689.40625 L 151.52344 689.40625 L 151.52344 756.07617 L 26.263672 756.07617 L 26.263672 689.40625 z M 748.47656 689.40625 L 873.73633 689.40625 L 873.73633 756.07617 L 748.47656 756.07617 L 748.47656 689.40625 z M 26.263672 798.50391 L 151.52344 798.50391 L 151.52344 865.17383 L 26.263672 865.17383 L 26.263672 798.50391 z M 748.47656 798.50391 L 873.73633 798.50391 L 873.73633 865.17383 L 748.47656 865.17383 L 748.47656 798.50391 z "
       transform="matrix(0.93749998,0,0,0.93749998,202.23216,181.82652)"
       id="rect814" />
  </g>
</svg>
